<svg width="45" height="45" viewBox="0 0 45 45" fill="none" xmlns="http://www.w3.org/2000/svg">
<rect width="45" height="45" fill="#BF0603"/>
<g clip-path="url(#clip0_56_3594)">
<path d="M22.0678 11.935C25.6517 11.935 26.0761 11.9507 27.4855 12.0136C28.7955 12.0712 29.5028 12.2913 29.9744 12.4747C30.5979 12.7157 31.0485 13.0091 31.5148 13.4755C31.9864 13.947 32.2746 14.3924 32.5156 15.0159C32.699 15.4875 32.919 16.2001 32.9767 17.5047C33.0396 18.9194 33.0553 19.3438 33.0553 22.9225C33.0553 26.5064 33.0396 26.9308 32.9767 28.3403C32.919 29.6502 32.699 30.3576 32.5156 30.8291C32.2746 31.4526 31.9811 31.9032 31.5148 32.3696C31.0433 32.8411 30.5979 33.1293 29.9744 33.3703C29.5028 33.5537 28.7902 33.7738 27.4855 33.8314C26.0708 33.8943 25.6464 33.91 22.0678 33.91C18.4839 33.91 18.0594 33.8943 16.65 33.8314C15.3401 33.7738 14.6327 33.5537 14.1612 33.3703C13.5376 33.1293 13.087 32.8359 12.6207 32.3696C12.1491 31.898 11.861 31.4526 11.6199 30.8291C11.4365 30.3576 11.2165 29.645 11.1588 28.3403C11.096 26.9256 11.0802 26.5012 11.0802 22.9225C11.0802 19.3386 11.096 18.9142 11.1588 17.5047C11.2165 16.1948 11.4365 15.4875 11.6199 15.0159C11.861 14.3924 12.1544 13.9418 12.6207 13.4755C13.0923 13.0039 13.5376 12.7157 14.1612 12.4747C14.6327 12.2913 15.3453 12.0712 16.65 12.0136C18.0594 11.9507 18.4839 11.935 22.0678 11.935ZM22.0678 9.51953C18.4262 9.51953 17.9704 9.53525 16.5399 9.59813C15.1148 9.661 14.135 9.89155 13.2861 10.2216C12.4006 10.5675 11.6514 11.0233 10.9073 11.7726C10.1581 12.5166 9.70222 13.2659 9.35641 14.1461C9.02631 15.0002 8.79577 15.9748 8.73289 17.3999C8.67002 18.8356 8.6543 19.2914 8.6543 22.933C8.6543 26.5745 8.67002 27.0304 8.73289 28.4608C8.79577 29.886 9.02631 30.8658 9.35641 31.7146C9.70222 32.6001 10.1581 33.3494 10.9073 34.0934C11.6514 34.8374 12.4006 35.2985 13.2809 35.6391C14.135 35.9692 15.1095 36.1997 16.5347 36.2626C17.9651 36.3255 18.421 36.3412 22.0625 36.3412C25.7041 36.3412 26.1599 36.3255 27.5903 36.2626C29.0155 36.1997 29.9953 35.9692 30.8441 35.6391C31.7244 35.2985 32.4737 34.8374 33.2177 34.0934C33.9617 33.3494 34.4228 32.6001 34.7634 31.7199C35.0935 30.8658 35.324 29.8912 35.3869 28.466C35.4498 27.0356 35.4655 26.5798 35.4655 22.9382C35.4655 19.2967 35.4498 18.8408 35.3869 17.4104C35.324 15.9852 35.0935 15.0054 34.7634 14.1566C34.4333 13.2659 33.9774 12.5166 33.2282 11.7726C32.4842 11.0285 31.7349 10.5675 30.8546 10.2269C30.0006 9.89678 29.026 9.66624 27.6008 9.60337C26.1652 9.53525 25.7093 9.51953 22.0678 9.51953Z" fill="white"/>
<path d="M22.0679 16.043C18.2639 16.043 15.1777 19.1291 15.1777 22.9331C15.1777 26.7371 18.2639 29.8232 22.0679 29.8232C25.8718 29.8232 28.958 26.7371 28.958 22.9331C28.958 19.1291 25.8718 16.043 22.0679 16.043ZM22.0679 27.4025C19.6 27.4025 17.5984 25.401 17.5984 22.9331C17.5984 20.4652 19.6 18.4637 22.0679 18.4637C24.5357 18.4637 26.5373 20.4652 26.5373 22.9331C26.5373 25.401 24.5357 27.4025 22.0679 27.4025Z" fill="white"/>
<path d="M30.8392 15.7707C30.8392 16.6614 30.1161 17.3792 29.2306 17.3792C28.3399 17.3792 27.6221 16.6562 27.6221 15.7707C27.6221 14.8799 28.3451 14.1621 29.2306 14.1621C30.1161 14.1621 30.8392 14.8852 30.8392 15.7707Z" fill="white"/>
</g>
<defs>
<clipPath id="clip0_56_3594">
<rect x="8.6543" y="9.51953" width="26.8269" height="26.8269" rx="4" fill="white"/>
</clipPath>
</defs>
</svg>
